<svg xmlns="http://www.w3.org/2000/svg" width="24" height="24" viewBox="0 0 24 24" fill="none">
  <g clip-path="url(#clip0_121_2831)">
    <path d="M23.6059 5.91602C23.5509 5.80278 23.4696 5.70433 23.3688 5.62889C23.268 5.55345 23.1506 5.5032 23.0264 5.48233C22.9023 5.46146 22.7749 5.47057 22.655 5.50891C22.5351 5.54725 22.426 5.61371 22.337 5.70274L19.9393 8.10039C19.8415 8.19687 19.7097 8.25095 19.5723 8.25095C19.4349 8.25095 19.3031 8.19687 19.2053 8.10039L18.1515 7.04664C18.0551 6.9487 18.0011 6.81679 18.0011 6.67938C18.0011 6.54196 18.0551 6.41005 18.1515 6.31211L20.5365 3.92664C20.6278 3.8354 20.6953 3.72318 20.7332 3.5998C20.771 3.47643 20.7781 3.34566 20.7537 3.21893C20.7293 3.09221 20.6743 2.97338 20.5933 2.87285C20.5124 2.77232 20.4081 2.69315 20.2895 2.64227C18.4281 1.84539 16.1139 2.29305 14.6645 3.73399C13.4078 4.98133 13.0318 6.92149 13.6332 9.06368C13.6592 9.15561 13.6591 9.25294 13.6329 9.34482C13.6067 9.43669 13.5556 9.51949 13.4851 9.58399L5.38043 17.1145C5.11193 17.356 4.89542 17.6497 4.74409 17.9776C4.59276 18.3056 4.50978 18.6609 4.5002 19.0219C4.49063 19.3829 4.55466 19.7421 4.68839 20.0776C4.82212 20.4131 5.02276 20.7179 5.27808 20.9733C5.5334 21.2288 5.83805 21.4296 6.17347 21.5635C6.5089 21.6974 6.86807 21.7616 7.22911 21.7522C7.59016 21.7428 7.94551 21.66 8.27351 21.5088C8.60152 21.3576 8.89531 21.1413 9.137 20.8729L16.735 12.7541C16.7986 12.6853 16.8798 12.635 16.9698 12.6088C17.0598 12.5827 17.1553 12.5815 17.2459 12.6056C19.3553 13.1681 21.2772 12.7931 22.5161 11.5743C23.2286 10.8712 23.7259 9.87883 23.9172 8.77539C24.0967 7.73477 23.9833 6.69227 23.6059 5.91602Z" fill="white" fill-opacity="0.7"/>
    <path d="M20.5014 17.7385C19.8479 17.1951 18.4517 15.9383 17.0289 14.634L13.9314 17.9443C15.2553 19.3508 16.4536 20.6564 16.9787 21.2673L16.982 21.271C17.1081 21.4154 17.2624 21.5325 17.4354 21.615C17.6084 21.6976 17.7965 21.7439 17.9881 21.7511H18.0396C18.408 21.75 18.7613 21.605 19.0242 21.347L19.0274 21.3437L20.5947 19.7793C20.7308 19.6434 20.8371 19.4807 20.9067 19.3014C20.9763 19.1221 21.0077 18.9303 20.9989 18.7382C20.99 18.5461 20.9412 18.3579 20.8554 18.1858C20.7697 18.0136 20.649 17.8613 20.5009 17.7385H20.5014Z" fill="white" fill-opacity="0.7"/>
    <path d="M5.55677 10.0576C5.55754 9.87974 5.50885 9.70511 5.41615 9.55327C5.40316 9.53273 5.39622 9.50896 5.39612 9.48466C5.39602 9.46036 5.40277 9.43653 5.41558 9.41589C5.4284 9.39525 5.44677 9.37863 5.46859 9.36794C5.4904 9.35726 5.51479 9.35293 5.53896 9.35546H5.54177C5.58115 9.35968 5.79161 9.39014 6.09021 9.57155C6.31193 9.70608 6.94474 10.1378 8.0463 11.2375C8.03458 11.612 8.15431 11.9789 8.38474 12.2744L11.4893 9.38921C11.2143 9.12885 10.855 8.97582 10.4768 8.95796C10.4732 8.9541 10.4699 8.95003 10.4669 8.94577L10.4365 8.91342L9.28614 7.32717C9.15826 7.15353 9.0744 6.95147 9.04174 6.7383C9.00909 6.52514 9.02861 6.30723 9.09864 6.10327C9.20416 5.79948 9.39607 5.53312 9.65083 5.33686C9.91755 5.13014 10.5194 4.88124 11.0308 4.83905C11.2691 4.81935 11.5089 4.83419 11.7429 4.88311C11.855 4.91016 11.9654 4.94349 12.0738 4.98296C12.1066 4.99522 12.1403 5.00509 12.1746 5.01249C12.3234 5.04545 12.4787 5.0323 12.6198 4.97479C12.7609 4.91729 12.8812 4.81815 12.9646 4.69058C13.048 4.56302 13.0905 4.41308 13.0865 4.26073C13.0826 4.10838 13.0323 3.96086 12.9424 3.8378C12.9302 3.82139 12.8805 3.75389 12.8069 3.66296C12.6696 3.48977 12.5192 3.32742 12.3569 3.17733C11.9749 2.83233 10.9849 2.25061 9.68505 2.25061C8.94119 2.25007 8.20423 2.39332 7.51474 2.67249C5.71614 3.39671 4.53958 4.38717 3.99865 4.91264L3.99443 4.91686C3.63044 5.27626 3.29344 5.66199 2.98615 6.07092C2.86997 6.23475 2.79446 6.42386 2.76583 6.62264C2.75246 6.70721 2.70799 6.78375 2.64114 6.83724C2.57429 6.89074 2.48987 6.91735 2.40443 6.91186C2.38755 6.91186 2.37021 6.91186 2.35333 6.91186C2.0978 6.91016 1.85195 7.00958 1.66943 7.18842L0.288958 8.53421L0.273958 8.54921C0.100309 8.72962 0.00237081 8.9697 0.00027837 9.22009C-0.00181407 9.47049 0.0920979 9.71217 0.262708 9.89546C0.271615 9.90483 0.280052 9.91374 0.289427 9.92264L2.51599 12.0944C2.69944 12.2741 2.94588 12.375 3.20271 12.3756C3.45825 12.3773 3.70409 12.2779 3.88661 12.0991L5.26755 10.7495C5.35965 10.6595 5.43272 10.5518 5.4824 10.4329C5.53208 10.3141 5.55737 10.1865 5.55677 10.0576V10.0576Z" fill="white" fill-opacity="0.7"/>
  </g>
  <defs>
    <clipPath id="clip0_121_2831">
      <rect width="24" height="24" fill="white" fill-opacity="0.7"/>
    </clipPath>
  </defs>
</svg>