<svg width="24" height="24" viewBox="0 0 24 24" fill="none" xmlns="http://www.w3.org/2000/svg">
<g clip-path="url(#clip0_176_5)">
<path d="M22.9414 12.5312C22.9453 12.5273 22.9453 12.5273 22.9531 12.5234C22.9648 12.5039 22.9805 12.4883 22.9922 12.4687C22.9961 12.4648 22.9961 12.457 23 12.4531C23.0117 12.4336 23.0234 12.4141 23.0352 12.3945C23.0352 12.3906 23.0391 12.3828 23.0391 12.3828C23.0508 12.3633 23.0586 12.3437 23.0703 12.3203C23.0703 12.3164 23.0703 12.3164 23.0742 12.3125C23.082 12.293 23.0898 12.2656 23.0977 12.2422C23.0977 12.2383 23.0977 12.2344 23.1016 12.2344C23.1094 12.207 23.1172 12.1875 23.1172 12.1641C23.1172 12.1562 23.1172 12.1484 23.125 12.1406C23.1289 12.1211 23.1289 12.1016 23.1328 12.082C23.1367 12.0508 23.1367 12.0273 23.1367 11.9961C23.1367 11.9687 23.1367 11.9453 23.1328 11.9141C23.1328 11.8945 23.1289 11.875 23.125 11.8555C23.125 11.8437 23.125 11.8398 23.1172 11.832C23.1133 11.8047 23.1094 11.7852 23.1016 11.7617C23.1016 11.7578 23.1016 11.7539 23.0977 11.7539C23.0938 11.7266 23.082 11.707 23.0742 11.6836C23.0742 11.6797 23.0742 11.6797 23.0703 11.6758C23.0586 11.6562 23.0508 11.6289 23.0391 11.6094C23.0391 11.6055 23.0352 11.6016 23.0352 11.6016C23.0234 11.582 23.0156 11.5625 23 11.543C22.9961 11.5352 22.9961 11.5312 22.9922 11.5273C22.9766 11.5078 22.9648 11.4883 22.9531 11.4727C22.9453 11.4687 22.9453 11.4687 22.9414 11.4648C22.9219 11.4453 22.9063 11.418 22.8828 11.3984L18.0391 6.55859C17.7109 6.23047 17.1758 6.23047 16.8477 6.55859C16.5195 6.88672 16.5195 7.42187 16.8477 7.75L20.2578 11.1602H6.70312C6.23828 11.1602 5.85938 11.5352 5.85938 11.9961C5.85938 12.4648 6.23828 12.8398 6.70312 12.8398H20.2617L16.875 16.2266C16.5469 16.5547 16.5469 17.0859 16.875 17.4141C17.0391 17.5781 17.2539 17.6602 17.4688 17.6602C17.6836 17.6602 17.9023 17.5781 18.0625 17.4141L22.8789 12.6016C22.9023 12.5703 22.9219 12.5508 22.9414 12.5312Z" fill="white" fill-opacity="0.7"/>
<path d="M5.42188 1.67969H11.6953C12.1602 1.67969 12.5352 1.30469 12.5352 0.84375C12.5352 0.378906 12.1602 0 11.6953 0H5.42188C2.91016 0 0.863281 2.04688 0.863281 4.5625V19.4375C0.863281 21.9531 2.91016 24 5.42188 24H11.5898C12.0547 24 12.4336 23.6211 12.4336 23.1641C12.4336 22.6953 12.0547 22.3203 11.5898 22.3203H5.42188C3.83594 22.3203 2.54297 21.0273 2.54297 19.4375V4.5625C2.54688 2.96875 3.83594 1.67969 5.42188 1.67969Z" fill="white" fill-opacity="0.7"/>
</g>
<defs>
<clipPath id="clip0_176_5">
<rect width="24" height="24" fill="white"/>
</clipPath>
</defs>
</svg>
