<svg xmlns="http://www.w3.org/2000/svg" width="24" height="24" viewBox="0 0 24 24" fill="none">
    <path d="M15.5918 3.02786C14.6796 2.04302 13.4056 1.50067 11.9993 1.50067C10.5856 1.50067 9.30728 2.03973 8.39931 3.01848C7.4815 4.00802 7.03431 5.35286 7.13931 6.80505C7.34744 9.67005 9.52759 12.0007 11.9993 12.0007C14.471 12.0007 16.6474 9.67051 16.8588 6.80598C16.9653 5.36692 16.5153 4.02489 15.5918 3.02786Z" fill="white" fill-opacity="0.7"/>
    <path d="M20.2498 22.5002H3.74978C3.53381 22.503 3.31993 22.4576 3.1237 22.3674C2.92747 22.2771 2.75383 22.1443 2.6154 21.9785C2.31072 21.6143 2.1879 21.1169 2.27884 20.6139C2.67447 18.4192 3.90915 16.5757 5.84978 15.2814C7.57384 14.1325 9.75775 13.5002 11.9998 13.5002C14.2418 13.5002 16.4257 14.133 18.1498 15.2814C20.0904 16.5752 21.3251 18.4188 21.7207 20.6135C21.8117 21.1164 21.6888 21.6138 21.3842 21.978C21.2458 22.1439 21.0722 22.2768 20.8759 22.3672C20.6797 22.4575 20.4658 22.5029 20.2498 22.5002V22.5002Z" fill="white" fill-opacity="0.7"/>
</svg>