<svg xmlns="http://www.w3.org/2000/svg" width="24" height="24" viewBox="0 0 24 24" fill="none">
    <path d="M19.4235 4.58196C18.4502 3.59906 17.2923 2.81816 16.0164 2.28411C14.7404 1.75005 13.3715 1.47338 11.9882 1.46997C10.605 1.46657 9.23475 1.7365 7.95617 2.26427C6.67758 2.79203 5.51587 3.56723 4.53778 4.54532C3.55969 5.52341 2.7845 6.68512 2.25673 7.96371C1.72896 9.2423 1.45903 10.6126 1.46243 11.9958C1.46584 13.379 1.74251 14.7479 2.27657 16.0239C2.81062 17.2999 3.59153 18.4578 4.57442 19.431C5.54768 20.4139 6.70556 21.1948 7.98154 21.7289C9.25751 22.2629 10.6264 22.5396 12.0097 22.543C13.3929 22.5464 14.7631 22.2765 16.0417 21.7487C17.3203 21.2209 18.482 20.4458 19.4601 19.4677C20.4382 18.4896 21.2134 17.3279 21.7412 16.0493C22.2689 14.7707 22.5389 13.4004 22.5355 12.0172C22.5321 10.634 22.2554 9.26505 21.7213 7.98908C21.1873 6.7131 20.4064 5.55522 19.4235 4.58196V4.58196ZM2.99895 12.0065C2.99861 11.2099 3.10423 10.4169 3.31301 9.64821C3.65707 10.3888 4.15676 11.0287 4.49661 11.7885C4.93582 12.7654 6.1152 12.4945 6.63598 13.3504C7.09817 14.1102 6.60458 15.0712 6.95051 15.8662C7.20176 16.4432 7.79426 16.5693 8.20301 16.9912C8.62067 17.4168 8.61176 17.9999 8.67551 18.5549C8.74745 19.207 8.86413 19.8534 9.02473 20.4895C9.02473 20.4942 9.02473 20.4993 9.02848 20.504C5.52083 19.2721 2.99895 15.9285 2.99895 12.0065ZM11.999 21.0065C11.4963 21.0063 10.9946 20.9643 10.499 20.8809C10.5041 20.7538 10.5065 20.6352 10.5191 20.5527C10.633 19.8074 11.0061 19.0785 11.5096 18.5207C12.0069 17.9704 12.6885 17.5982 13.1085 16.9738C13.52 16.3645 13.6433 15.5442 13.4736 14.8321C13.2238 13.7802 11.7946 13.4291 11.024 12.8587C10.581 12.5306 10.1868 12.0234 9.60504 11.9821C9.33692 11.9634 9.11239 12.021 8.84661 11.9526C8.60286 11.8893 8.41161 11.7581 8.15192 11.7923C7.66676 11.856 7.36067 12.3745 6.83942 12.3041C6.34489 12.2381 5.83536 11.6591 5.72286 11.1881C5.57848 10.5824 6.05754 10.386 6.57083 10.3321C6.78504 10.3096 7.02551 10.2852 7.23129 10.364C7.50223 10.4643 7.6302 10.7296 7.87348 10.8637C8.32958 11.114 8.42192 10.7141 8.35208 10.3091C8.24754 9.70258 8.12567 9.45555 8.66661 9.0379C9.04161 8.75008 9.36223 8.54196 9.30223 8.02493C9.26661 7.72118 9.1002 7.58383 9.25536 7.28149C9.37301 7.05133 9.69598 6.84368 9.90645 6.70633C10.4497 6.35196 12.2338 6.37821 11.5049 5.38633C11.2907 5.09524 10.8955 4.57493 10.5205 4.50368C10.0518 4.41508 9.84364 4.93821 9.51692 5.16883C9.17942 5.40743 8.52223 5.67836 8.18426 5.30946C7.72958 4.81305 8.48567 4.6504 8.65301 4.30352C8.73036 4.1418 8.65301 3.91727 8.5227 3.70586C8.69176 3.63461 8.86364 3.56852 9.03833 3.50758C9.1478 3.58844 9.27767 3.63714 9.41333 3.64821C9.72692 3.66883 10.0227 3.49914 10.2965 3.71289C10.6002 3.94727 10.8191 4.24352 11.2222 4.31665C11.6122 4.38743 12.0252 4.16008 12.1218 3.76071C12.1804 3.51789 12.1218 3.26149 12.0655 3.01071C13.8186 3.02079 15.5302 3.54582 16.9874 4.52055C16.8936 4.48493 16.7816 4.48915 16.6433 4.55336C16.3588 4.68555 15.9557 5.02211 15.9224 5.35586C15.8844 5.73461 16.4432 5.78805 16.7085 5.78805C17.1069 5.78805 17.5105 5.60993 17.3821 5.14961C17.3263 4.94993 17.2504 4.74227 17.128 4.61665C17.4221 4.82072 17.7039 5.04205 17.9718 5.27946C17.9675 5.28368 17.9633 5.28743 17.9591 5.29211C17.6891 5.57336 17.3755 5.79602 17.1908 6.13821C17.0605 6.37915 16.9138 6.49352 16.6499 6.55587C16.5046 6.59008 16.3386 6.60274 16.2168 6.70024C15.8774 6.96743 16.0705 7.60961 16.3921 7.80227C16.7985 8.04555 17.4013 7.93118 17.7079 7.58383C17.9474 7.31196 18.0885 6.83993 18.5193 6.8404C18.7089 6.84 18.8911 6.91426 19.0265 7.04712C19.2046 7.2318 19.1694 7.4043 19.2074 7.63493C19.2744 8.04461 19.6358 7.82243 19.8557 7.61571C20.0159 7.90091 20.1605 8.19462 20.2888 8.49555C20.0469 8.84383 19.8547 9.22352 19.273 8.81758C18.9247 8.5743 18.7105 8.22133 18.2732 8.11165C17.8911 8.0179 17.4997 8.1154 17.1224 8.18055C16.6935 8.25508 16.1849 8.2879 15.8596 8.61274C15.545 8.92587 15.3786 9.34493 15.044 9.65946C14.3966 10.2688 14.1233 10.934 14.5424 11.7956C14.9455 12.6238 15.7888 13.0734 16.6986 13.0143C17.5925 12.9548 18.5211 12.4363 18.4954 13.7352C18.486 14.1951 18.5821 14.5134 18.7232 14.9404C18.854 15.3341 18.845 15.7157 18.875 16.1221C18.9036 16.598 18.978 17.0701 19.0972 17.5317C18.257 18.6134 17.1807 19.4889 15.9505 20.0911C14.7203 20.6933 13.3687 21.0064 11.999 21.0065Z" fill="white"/>
</svg>