<svg xmlns="http://www.w3.org/2000/svg" width="24" height="24" viewBox="0 0 24 24" fill="white" fill-opacity="1">
  <path d="M20.1654 19.7546L16.0109 15.3441C17.0111 13.9306 17.5511 12.2099 17.5493 10.442C17.5493 5.92602 14.0885 2.25195 9.83468 2.25195C5.5809 2.25195 2.12012 5.92602 2.12012 10.442C2.12012 14.9579 5.5809 18.632 9.83468 18.632C11.5 18.6339 13.1208 18.0607 14.4523 16.9988L18.6067 21.4093C18.817 21.6089 19.0913 21.7154 19.3733 21.707C19.6552 21.6986 19.9235 21.576 20.1229 21.3642C20.3224 21.1525 20.4379 20.8677 20.4458 20.5684C20.4537 20.2691 20.3534 19.9779 20.1654 19.7546V19.7546ZM4.32428 10.442C4.32428 9.28493 4.64746 8.15389 5.25295 7.19187C5.85844 6.22984 6.71905 5.48003 7.72594 5.03726C8.73284 4.59448 9.8408 4.47864 10.9097 4.70436C11.9786 4.93008 12.9605 5.48724 13.7311 6.30538C14.5018 7.12351 15.0266 8.16588 15.2392 9.30067C15.4518 10.4355 15.3427 11.6117 14.9256 12.6806C14.5086 13.7496 13.8023 14.6632 12.8961 15.306C11.9899 15.9489 10.9245 16.292 9.83468 16.292C8.37377 16.2901 6.9732 15.6732 5.94018 14.5765C4.90715 13.4798 4.32603 11.9929 4.32428 10.442V10.442Z" fill="white" fill-opacity="0.6"/>
</svg>